<?xml version="1.0" standalone="no"?>
<!DOCTYPE svg PUBLIC "-//W3C//DTD SVG 20010904//EN"
 "http://www.w3.org/TR/2001/REC-SVG-20010904/DTD/svg10.dtd">
<svg version="1.0" xmlns="http://www.w3.org/2000/svg"
 width="150.000000pt" height="150.000000pt" viewBox="0 0 150.000000 150.000000"
 preserveAspectRatio="xMidYMid meet">
<metadata>
Created by potrace 1.14, written by Peter Selinger 2001-2017
</metadata>
<g transform="translate(0.000000,150.000000) scale(0.100000,-0.100000)"
fill="#000000" stroke="none">
<path d="M595 1229 c-77 -16 -161 -29 -187 -29 -84 0 -116 -53 -140 -230 l-12
-91 -65 -31 c-82 -39 -155 -107 -177 -163 -63 -167 161 -351 521 -426 97 -20
446 -16 525 6 8 2 26 6 40 9 203 34 378 137 396 232 18 95 -80 205 -256 289
-29 13 -40 27 -54 68 -35 100 -102 220 -154 277 -106 118 -200 137 -437 89z"/>
</g>
</svg>
